<svg id="Layer_1" xmlns="http://www.w3.org/2000/svg" viewBox="0 0 820 339"><style>.st0{fill:none;stroke:url(#SVGID_1_);stroke-width:3;stroke-linecap:round;stroke-linejoin:round}</style><title>Graph</title><g id="Landing-Page"><g id="_x31_-1-Start---Oya" transform="translate(0 -56)"><g id="Phone" transform="translate(-59 58)"><g id="Graph" transform="translate(0 .416)"><linearGradient id="SVGID_1_" gradientUnits="userSpaceOnUse" x1="170.825" y1="587.683" x2="171.823" y2="586.684" gradientTransform="matrix(879.3871 0 0 -335.5526 -150265.297 197212.469)"><stop offset="0" stop-color="#ffe736"/><stop offset="1" stop-color="#66ffe9"/></linearGradient><path class="st0" d="M-.8 193.1C87.7 63.4 166.9-1.6 236.9-1.6c29.4 0 57.3 6.8 90.5 20.7 9.5 4 19.4 8.5 31.8 14.4 5.6 2.7 27.4 13.3 32.7 15.8 29.4 14.1 51.1 23.3 74.7 31.1 29.6 9.8 59.3 16 91 18.4C625 104 679.4 122.3 720 150.5c32.8 22.8 54.9 51.1 63.2 77.2 8 24.9 22.8 45.8 43.2 64.2 10 9.1 19 15.7 33.6 25.6 13.9 9.4 17 14.3 17 14.3"/></g></g></g></g></svg>