<svg width="151" height="44" viewBox="0 0 151 44" xmlns="http://www.w3.org/2000/svg"><title>Oya - Horizontal</title><path d="M108.347 40c-.239 0-.48-.06-.699-.187-.635-.369-.838-1.158-.452-1.765l20.652-32.43A1.362 1.362 0 0 1 129 5c.471 0 .908.234 1.152.618l20.652 32.43c.386.607.184 1.396-.453 1.765-.635.369-1.464.175-1.85-.431L129 8.76l-19.5 30.62a1.363 1.363 0 0 1-1.153.619M97.52.312a1.343 1.343 0 0 0-1.889.167l-22.13 26.39L51.367.48A1.342 1.342 0 0 0 49.48.312a1.337 1.337 0 0 0-.167 1.886L72.16 29.44v13.222a1.339 1.339 0 0 0 2.68 0V29.44L97.688 2.198c.476-.567.4-1.412-.167-1.886M18 40C8.075 40 0 32.15 0 22.5S8.075 5 18 5s18 7.85 18 17.5S27.925 40 18 40m0-32.412c-8.458 0-15.338 6.69-15.338 14.912 0 8.222 6.88 14.912 15.338 14.912 8.458 0 15.338-6.69 15.338-14.912 0-8.222-6.88-14.912-15.338-14.912" fill="#FFF" fill-rule="evenodd"/></svg>