<?xml version="1.0" encoding="utf-8"?>
<!-- Generator: Adobe Illustrator 22.1.0, SVG Export Plug-In . SVG Version: 6.00 Build 0)  -->
<svg version="1.1" id="Layer_1" xmlns="http://www.w3.org/2000/svg" xmlns:xlink="http://www.w3.org/1999/xlink" x="0px" y="0px"
	 viewBox="0 0 820 339" style="enable-background:new 0 0 820 339;" xml:space="preserve">
<style type="text/css">
	.st0{fill:none;stroke:url(#SVGID_1_);stroke-width:3;stroke-linecap:round;stroke-linejoin:round;}
</style>
<title>Graph</title>
<desc>Created with Sketch.</desc>
<g id="Landing-Page">
	<g id="_x31_-1-Start---Oya" transform="translate(0.000000, -56.000000)">
		<g id="Phone" transform="translate(-59.000000, 58.000000)">
			<g id="Graph" transform="translate(0.000000, 0.415942)">
				
					<linearGradient id="SVGID_1_" gradientUnits="userSpaceOnUse" x1="170.8246" y1="587.6832" x2="171.8235" y2="586.6844" gradientTransform="matrix(879.3871 0 0 -335.5526 -150265.2969 197212.4688)">
					<stop  offset="0" style="stop-color:#FFE736"/>
					<stop  offset="1" style="stop-color:#66FFE9"/>
				</linearGradient>
				<path class="st0" d="M-0.8,193.1C87.7,63.4,166.9-1.6,236.9-1.6c29.4,0,57.3,6.8,90.5,20.7c9.5,4,19.4,8.5,31.8,14.4
					c5.6,2.7,27.4,13.3,32.7,15.8c29.4,14.1,51.1,23.3,74.7,31.1c29.6,9.8,59.3,16,91,18.4c67.4,5.2,121.8,23.5,162.4,51.7
					c32.8,22.8,54.9,51.1,63.2,77.2c8,24.9,22.8,45.8,43.2,64.2c10,9.1,19,15.7,33.6,25.6c13.9,9.4,17,14.3,17,14.3"/>
			</g>
		</g>
	</g>
</g>
</svg>
